
<svg xmlns="http://www.w3.org/2000/svg" xmlns:ns0="http://www.w3.org/2000/svg">

<symbol id="bank-k" viewBox="0 0 1080 1080"><path style="fill:#140064" d="M515.53.57C217.62 14-13 266.4.57 564.37s265.91 528.47 563.86 515.07 528.53-266 515-563.89S813.54-13 515.53.57z" /><path style="fill:#fff" d="M315.77 446.56h-45.53l-71.89 83.7v-83.7H162v182.61h36.35v-83.92l74.27 83.92h45.53l-80.81-91.3 78.43-91.31zM918 629.17l-54.61-63.16 52.97-63.16h-39.19l-46.18 54.65V446.56h-36.35v182.61h36.35v-54.8l47.05 54.8H918zM405.24 498.4c-15.27 0-28.32 6.48-39.05 15.62v-67.46h-36.33v120.27c0 36.2 23.95 66.51 69 66.51 40.52 0 69.12-28 69.12-67.2-.1-37.14-24.62-67.74-62.74-67.74zm-6.48 102a34.56 34.56 0 0 1-34.56-33.59v-1a34.56 34.56 0 1 1 34.56 34.56zm326.05-102a61 61 0 0 0-41.93 16v-12h-36.33v126.83h36.33v-71.12a26.81 26.81 0 0 1 53.59 0v71.12h36.59v-82.74a48.43 48.43 0 0 0-48.25-48.09zm-169.95.11c-41 0-69.77 28.08-69.77 67.2 0 37.11 24.8 67.74 63.33 67.74a55.91 55.91 0 0 0 43.42-21.78v17.56h32.87v-63.5h-.3l.3-.71c-.06-36.2-24.23-66.51-69.85-66.51zm.78 101.74a34.56 34.56 0 1 1 34.56-34.56 34.56 34.56 0 0 1-34.56 34.56z" />

</symbol>

<symbol id="bank-ibk" viewBox="0 0 1080 1080"><path d="M515.53.57C217.62 14-13 266.4.57 564.37s265.91 528.47 563.86 515.07 528.53-266 515-563.89S813.54-13 515.53.57z" style="fill:#004b9d" /><path d="M373.68 233.93a72.53 72.53 0 0 0-36.68 42.4L219.78 628.41a73.29 73.29 0 0 0 46.4 92.67l384.22 129a73.44 73.44 0 0 0 92.6-46.4L860.17 451.6a73.43 73.43 0 0 0-46.33-92.71L429.62 230a72.63 72.63 0 0 0-55.94 3.93z" style="fill:#fff" /><path d="M476 272.45c67.22 24.92 116.29 96.72 111.52 175a175 175 0 0 1-26.09 82.29 201.13 201.13 0 0 0-77.26-53.54L467 469.46v163.3l17.42-6.76a200.7 200.7 0 0 0 77-53.85 176.51 176.51 0 0 1-21 214.16l.17-.13-.17.2-266.59-89.15a48.12 48.12 0 0 1-30.76-60.48l117.52-352.32a47.36 47.36 0 0 1 59.56-30.6l.38.13z" style="fill:#0092d8" /><path d="M407.23 642.63h-26.38V459.7h26.38z" style="fill:#fff" /><path d="M546.05 550.93A175.09 175.09 0 0 0 492.48 508v86a176.89 176.89 0 0 0 53.57-43.07z" style="fill:#e43d30" /><path d="M805.38 382.32l-244.8-81.69a201.61 201.61 0 0 1 17.74 250.18A201.43 201.43 0 0 1 566.7 795l91.9 30.69a47.53 47.53 0 0 0 60-30.35v-.13l117.52-352.3a48.24 48.24 0 0 0-30.74-60.59zm-65 259.77h-33l-68-91.28 69.12-91.5H742l-69.36 91.5z" style="fill:#004b9d" />
</symbol>

<symbol id="bank-epost" viewBox="0 0 1080 1080"><circle cx="540" cy="540" r="540" style="fill:#ff0c00" /><path d="M163.06 538.75a1.51 1.51 0 0 0-1 1.88 1.53 1.53 0 0 0 .89 1l116.64 77L313 461.46zm690.62-77.4h-29.51a13.65 13.65 0 0 0-5.25 1.32l-147.85 76.19c-1.38.62-1.43 1.94-.15 2.8l114.69 75.47a11.37 11.37 0 0 0 5.14 1.49h29.49c1.53 0 1.7-.64.45-1.49l-117.05-77L854 462.67c1.36-.67 1.17-1.32-.32-1.32z" style="fill:#fff" /><path d="M790.56 461.35H585l-33.38 157.27h205.46c1.56 0 1.71-.64.45-1.49l-116.85-77 150.12-77.46c1.36-.67 1.2-1.32-.24-1.32z" style="fill:#fff" /><path d="M916.73 461.35h-29.49a13.88 13.88 0 0 0-5.25 1.32l-147.83 76.19c-1.36.62-1.38 1.94-.13 2.8l114.7 75.47a10.9 10.9 0 0 0 5.1 1.49h29.61c1.51 0 1.75-.64.43-1.49l-117.07-77 150.31-77.44c1.32-.69 1.19-1.34-.38-1.34zM781.38 358.56H297.67c-27 0-45.88 17-50.37 38a28.19 28.19 0 0 0 10.8 28.82L432 540h.13L781.7 359.73c1.39-.73 1.3-1.17-.32-1.17zM704.68 720L432 540 209.52 654.76c-11.84 7-20.58 17.28-23 28.79-4.52 21 7.12 38 34.17 38h483.47c1.58 0 1.84-.67.52-1.55z" style="fill:#fff" />
</symbol>

<symbol id="bank-sh" viewBox="0 0 1080 1080"><circle cx="540" cy="540" r="540" style="fill:#0068b8" /><path d="M384.48 539.78c72.86 46.85 79.92 88.78 64.26 123.34-6.48 14.43-20.17 27-20.17 27s61.84-29.83 81.41-73.44c21.88-48.71-1.82-100.29-68.09-145-54.9-37-32.09-72-32.09-72s18.1-46.11 85.7-46.09c69.12 0 74.22 46.48 74.22 46.48l27-53.5c3.78-8.43-44-32.12-112.69-32.14-67.63 0-130 27.19-154.31 81.36-29.72 66.15 8 113.97 54.76 143.99z" style="fill:#fff" /><path d="M829 614.76c9.49-26.61 63.62-160.38-29.52-160.4-63.57 0-135.5 49.87-135.5 49.87l63.12-146.88s17.47-35.21-22.92-35.23H639.1s24.15 9.53 2.81 57.07l-94.13 214.4S494.34 709.52 386.86 709.5c-141.46 0-130.51-143.75-130.51-143.75L205.2 678.63s45.73 86.9 157.57 86.92c67.63 0 110.53-28.51 131.37-51 0 0-20.19 47 33.38 47h55s-15.49-10.8-14.34-24.49 19.55-56.94 32-79.58S674.31 525 746.19 518.1c64.8-6.2-32.85 197.34-32.85 197.34s-18.86 44.06 30.13 45.36 58 1.25 58 1.25-18.43-13.78-9.33-38.88S819.5 641.39 829 614.76z" style="fill:#fff" />
</symbol>

<symbol id="bank-nh" viewBox="0 0 1080 1080"><circle cx="540" cy="540" r="540" style="fill:#005bac" /><path d="M646.45 270l-106.47 53.44L433.51 270l106.47 202.41L646.45 270z" style="fill:#fabe00" /><path d="M683.7 426.45l-1.59-1.45L758 393.12V286.2l-132 56.29s-71.42 135.43-73.08 138.61a111 111 0 1 1-25.92 0c-1.6-3.11-73-138.61-73-138.61L322.23 286.2v106.92l75.94 31.95-1.64 1.4c-91 79.33-100.49 217.42-21.16 308.44S592.8 835.4 683.81 756.07 784.3 538.65 705 447.63a217.85 217.85 0 0 0-21.16-21.16z" style="fill:#fabe00" />

</symbol>

<symbol id="bank-hana" viewBox="0 0 1080 1080"><path d="M515.53.57C217.62 14-13 266.4.57 564.37s265.91 528.47 563.86 515.07 528.53-266 515-563.89S813.54-13 515.53.57z" style="fill:#009591" /><path d="M659.58 616.15A107 107 0 0 0 652 590.4c-11.39-24.56-27.24-45.19-51-59a114.65 114.65 0 0 0-118.15.71A103.73 103.73 0 0 0 444 573.77a123 123 0 0 0-7.36 18.23c-9.61 30.63-9.28 71.79 8.1 99.75a50.32 50.32 0 0 0 23.76 20.77 34.82 34.82 0 0 0 30.91-2.39c11.62-7.5 13.72-21.82 11.54-34.56-2.75-16.31-4.84-32.4 1.14-48.26a36.93 36.93 0 0 1 8.64-13.71 32.25 32.25 0 0 1 8.19-5.6 34.22 34.22 0 0 1 20.39-3.32c12.07 1.94 22 11.34 27.37 22.35s6.82 23.48 7.41 35.73c2.57 53.33-10.16 108.56-23.76 159.84q-2.16 7.9-4.32 15.77c-1.15 4.06-3.24 9.22-.65 13.15a10.32 10.32 0 0 0 4.75 3.65c7.86 3.18 14.38-1.68 19.68-7 31.25-31.45 51.3-72 65-113.79a364.13 364.13 0 0 0 12.47-47.52c4-22.07 6.32-47.37 2.39-70.65m223.79-246.59c0-8-7.09-13.3-14.69-13s-14.93 4.32-22 7c-137.55 52.29-292.7 62.23-437.66 41.32-24.79-3.56-49.91-8.64-74.88-12.48-15.58-2.42-31-5.94-46.74-7.15-13.42-1-30.11-1.52-41 7.84-14.32 12.33-13.31 35.72-5.19 51.21 9.74 18.58 26.81 32.4 44.54 43.07 17.28 10.26 37.82 21.23 58.32 19.92q83.1-5.33 165.72-16c93.93-12.21 192.38-23.76 280.56-60.14 28.85-11.92 57.3-26.78 82.07-46 4.52-3.37 11-9 11-15.51" style="fill:#fff" /><path d="M488.94 322.49a54.13 54.13 0 0 0 108.23 0 30.76 30.76 0 0 0-2.93-13c-4.65-9.83-9.85-14.58-9.36-26.37.72-15.9-19.67-16.11-30.62-16.11-12 0-24.67 1.66-35.47 7.08a54.26 54.26 0 0 0-29.9 47.17v1.26" style="fill:#fff" />

</symbol><symbol id="bank-sc" viewBox="0 0 1080 1080"><path d="M515.53.57C217.62 14-13 266.4.57 564.37s265.91 528.47 563.86 515.07 528.53-266 515-563.89S813.54-13 515.53.57z" style="fill:#0f7aed" /><path d="M668.8 349.92c-23.54 0-102.08 57.72-102.08 57.72s78.54 57.74 102.08 57.74c32.81 0 60.16-22.19 60.16-57.74s-27.35-57.72-60.16-57.72z" style="fill:#38d200" /><path d="M401.76 864c23.54 0 102.08-57.72 102.08-57.72s-78.47-57.74-102.08-57.74c-32.81 0-60.15 22.19-60.15 57.74S369 864 401.76 864zM689.3 544L486 408.85l117.48-82.27c27.13-19 35.56-56.51 17-84a60.16 60.16 0 0 0-83.47-16.43l-.94.64L395.71 326a99.8 99.8 0 0 0 2.42 164.68l317.74 210.59C752 645.63 745 580.14 689.3 544z" style="fill:#fff" /><path d="M364.48 525.73L714.87 751a60.08 60.08 0 0 1 18 83 60.08 60.08 0 0 1-83 18l-249.3-160.24a120.15 120.15 0 0 1-36.09-166z" style="fill:#38d200" />

</symbol><symbol id="bank-kb" viewBox="0 0 1080 1080"><path d="M515.53.57C217.62 14-13 266.4.57 564.37s265.91 528.47 563.86 515.07 528.53-266 515-563.89S813.54-13 515.53.57z" style="fill:#60584c" /><path d="M402.14 555.33c.67 47.65 3.09 102.08 11.47 145.32a1.64 1.64 0 0 0 .28.8c6.65 9.76 13.58 48.49 19.05 60.63a3.82 3.82 0 0 0 1.21 1.19c3.76 2.57 16.78 7.75 25.31 6.7a1 1 0 0 0 1.06-.93c1.92-10 .69-19.44-.45-37.82-3-45.23-6.29-117.2-5.77-160.84C489.7 590.1 622.46 685.27 691.68 705a4.53 4.53 0 0 0 4.32-1c3.67-3.84 6-4.51 10.2-6.28 1.92-.89 4.17-6 3.67-11.84 43.85-1.62 104.67-18.45 136.58-58.54 22-27.58 21.6-66 7.9-78.92-1.27-1.13-3.86-1.79-5.74-3.65-20.91-20.82-49.3-26.42-79.73-24.6C738 522 713.22 534.94 694 547.08c0 0-.2 0-.24-.13-1.66-29.55 10.15-67.07-.2-91.35a2 2 0 0 0-2.16-1.29c-9.24.15-27.21 6.63-31.1 10a3.83 3.83 0 0 0-1.4 3.15c-.11 6.89-2.16 42.79-5.66 46.25-.63.65-.44 1.31-.63 2.78-4.08 43.2-4 79.92-.28 110.9.13 1 4.32 5.4 9.33 7.21 3.44 1.25 17.15-1.58 28.94-6a17.72 17.72 0 0 1 4.56-.78c1.21 0 1.69-1.49 1.58-2.92a57.39 57.39 0 0 1 .3-10.15c6.76-27.41 34.73-63.07 70-68.52 22.46-3.52 37.28 4.32 47.52 15.54 2.67 2.93 5.87 25-6.87 48.85-9.2 17.28-27.78 32.4-52.88 41.91-26.42 10-52.94 12.14-80.42 11.14-26.8-16.15-71.73-53.59-111.15-68.49-6.24-2.44-17.4-12.18-22.35-16.18-19.13-15.4-60.06-42.07-84.36-58.42-.18-.16-.18-.33-.18-.67a11.66 11.66 0 0 1 .33-5.12 3.53 3.53 0 0 1 1.88-2.16c8.53-5.66 44.49-25.34 47.52-30a20.76 20.76 0 0 1 4-2.74c54-32.75 148.89-77.14 190.36-120a3.67 3.67 0 0 0 .59-2.5 19.67 19.67 0 0 1 .77-5.18 26.82 26.82 0 0 0 .44-16 2.65 2.65 0 0 0-1.62-1.75c-22.12-2.16-51.54 11.3-78.89 36.93-8.12 7.61-14.64 10.44-21.85 14.54-31 17.6-104.4 63.18-139.43 85.73a.54.54 0 0 1-.89-.43C461.75 430 469.64 371.3 478.34 326a4.55 4.55 0 0 0-.6-3.26c-2.85-4.32-4.54-9.44-5.58-10.52a1.49 1.49 0 0 0-.47-.39c-5.94-3-10.69-1.88-15.12-.86s-9.83 4.51-16.78 6.18a2.43 2.43 0 0 0-1.84 1.47c-16.76 41.62-31.88 112.86-34.82 168.09 0 .19 0 .58-.37.34a809.63 809.63 0 0 0-85.25-47.41 6 6 0 0 0-1.32-.35c-6.48-.79-13.95-5.55-20.91-9.69-7.69-4.65-22.81-15.34-32.25-20.8a4.27 4.27 0 0 0-3.21-.76c-7.56 1.3-23.29 11.81-27.65 18.62-1.41 2.16 1.49 6.8 1.14 9.67a.9.9 0 0 0 .26.85c8.77 9 31.88 25 56.57 38.23 28.51 15.38 57.52 30 69.55 37.6a2.55 2.55 0 0 1 .74.76 21.63 21.63 0 0 0 6.48 4.86c5.68 3.39 6.87 3.78 8.51 5.25.75.71.39 1.51-.39 2.16-30.24 21-90.07 59.87-118.67 79.08a259.78 259.78 0 0 1-23.76 11.34c-7.28 3-13.82 7.82-16.35 13.3-.5 1 .17 1.6.93 1.84 4.6 1.29 5.72 4.53 8.92 5.79a11.27 11.27 0 0 0 3.61.41c5.94.23 16.45-3.8 35.22-12 21.41-9.53 88.05-50.4 96.1-55.08a.77.77 0 0 1 .54-.18c3.87 0 7.45-2.87 11-5.61a117.7 117.7 0 0 1 18.92-11.28l10.8-6z" style="fill:#fc0" />

</symbol><symbol id="bank-kakao" viewBox="0 0 1080 1080"><circle cx="540" cy="540" r="540" style="fill:#ffe300" /><path d="M692.8 540A147.1 147.1 0 0 0 612 270H365.41a8.49 8.49 0 0 0-8.51 8.47v523a8.64 8.64 0 0 0 8.51 8.64H612a147.1 147.1 0 0 0 80.83-270zm-121 122.88h-46.34V417.12h46.31z" style="fill:#1e1e1e" />

</symbol><symbol id="bank-sinhan" viewBox="0 0 1080 1080"><path d="M515.53.57C217.62 14-13 266.4.57 564.37s265.91 528.47 563.86 515.07 528.53-266 515-563.89S813.54-13 515.53.57z" style="fill:#0575ca" /><path d="M525.31 216C346.43 224.12 208 375.73 216.11 554.64S375.8 872 554.69 863.89 872 704.17 863.89 525.26C855.78 346.41 704.24 208 525.42 216.11h-.11zm33 316c51.07 47.11 97.69 90.28 97.69 90.28 69.9 75.47 30.54 131.72 11 146.46-29.36 22.29-60 29.64-98.11 31.68-3.4.51-9.66-1.45-10-7.53-.21-6.48 9.25-8.1 9.25-8.1C653.06 768.05 626 712 596 683.59c-12.66-12-128.67-113.69-128.67-113.69C354.56 472.83 363.53 397 363.53 397c7.26-95.31 87.06-116.44 148.9-111.07 7.22.62 11.22 5 10 11.06-1.41 6.49-11 7-11 7-19.67 1.19-37.22 3.22-50.63 12.23-49.71 33.49-35 90.41 31.3 153.86 8.35 8 17.29 16.37 26.31 24.93-.01.05 13.41 11.78 39.91 36.99zm-38.53 241.15c.54 9.11-21.61 13.08-46.88 10.6-31.73-3.12-69.58-13.15-102.61-41.66-30.26-26.25-49.13-62.35-58.25-94-9.36-32.43-13.23-70.37 2.16-67.38 4.78.9 13 21.79 21.85 37 9.19 15.66 16.71 24.35 23.78 29.64 3.13 2.4 14-21.72 29.74-35.41 9.12-7.54 19.11-10.16 20.75 12.41 2 27.69-3 60.53 5.08 60.53 7.57 0 24.56-5.71 61.93-8.9 14.05-1.22 22.09 1.47 8.65 20.38a141.3 141.3 0 0 1-36.75 37.94c31.77 29.75 69.86 26.14 70.55 38.85zm25.05-289.42c-2.37-9.26-2.94-21-1-36.06 4-31.33 12.42-46.05 22-70.35 13-32.64-18.56-51.73-13.29-63.75 7.07-16.28 29.59 4.32 54.75 5.92 21.62 1.19 34.58 0 51.42 2.34 22.35 3 49.09 10.57 61 24.53 10.94 12.8-5.73 28.41-25.81 18.62-14.66-7.14-33.11-2.73-22.29 12.54 13 14.52 19.46 14.39 36.15 20.14 35.77 12.24 34.58 43.44 8.88 60.54-31 20.49-56.57 12.64-68-27.8-5.73-20.2-20-30.49-34.59-24.74s-5.94 32.28 5.13 56.88c22.06 56.43-32.82 54.52-39.21 53.74a45.61 45.61 0 0 1-35.14-32.55z" style="fill:#fff" />

</symbol>

<symbol id="bank-woori" viewBox="0 0 1080 1080"><path d="M515.53.57C217.62 14-13 266.4.57 564.37s265.91 528.47 563.86 515.07 528.53-266 515-563.89S813.54-13 515.53.57z" style="fill:#0062ac" /><path d="M864 540c0 179-145.06 324-324 324S216 719 216 540s145.06-324 324-324 324 145.06 324 324z" style="fill:#fff" /><path d="M540 847.74c170.59 0 308.88-138.29 308.88-308.88S710.59 230 540 230 231.12 368.27 231.12 538.86 369.41 847.74 540 847.74z" style="fill:#007bc6" /><g class="cls-5"><path d="M541.3 687.9c135.67 0 251.94 37.84 301.83 91.58a312.42 312.42 0 0 0 25.92-125c0-177.25-146.88-320.76-327.75-320.76S213.49 477.21 213.49 654.49a313 313 0 0 0 25.92 125c49.79-53.72 166.15-91.59 301.89-91.59z" style="fill:#007bc6" /><path d="M541.27 688.22c135.29 0 251.45 37.55 301.13 90.85a308.86 308.86 0 0 0 25.92-124c0-175.85-146.45-318.62-326.89-318.62S214.29 479.24 214.29 655.11a308 308 0 0 0 25.92 124c49.53-53.34 165.68-90.89 301.06-90.89z" style="fill:#007dc7" /><path d="M541.21 688.53c135 0 250.71 37.32 300.24 90.16a304.83 304.83 0 0 0 25.77-123c0-174.45-146.08-316.53-326.16-316.53S214.9 481.27 214.9 655.74a302.55 302.55 0 0 0 25.92 123c49.55-52.97 165.37-90.21 300.39-90.21z" style="fill:#007fc9" /><path d="M541.12 688.87c134.66 0 250.11 37 299.51 89.38a299.18 299.18 0 0 0 25.72-122c0-173-145.69-314.39-325.23-314.39S216 483.31 216 656.34a300.17 300.17 0 0 0 25.68 121.91c49.32-52.48 164.83-89.38 299.44-89.38z" style="fill:#0080ca" /><path d="M541.12 689.22c134.31 0 249.44 36.72 298.71 88.67a295.35 295.35 0 0 0 25.66-121c0-171.55-145.3-312.23-324.37-312.23S216.69 485.38 216.69 657a296.34 296.34 0 0 0 25.68 121c49.23-52.23 164.44-88.78 298.75-88.78z" style="fill:#0081cb" /><path d="M541.12 689.56c133.92 0 248.75 36.31 297.91 88a292.77 292.77 0 0 0 25.6-120c0-170.14-144.94-310.11-323.51-310.11s-323.63 140-323.63 310.2a292.57 292.57 0 0 0 25.62 120c49.07-51.78 164.03-88.09 298.01-88.09z" style="fill:#0083cc" /><path d="M541.06 689.91c133.55 0 248.12 36.07 297.13 87.22a287.54 287.54 0 0 0 25.53-119c0-168.72-144.5-308-322.66-308s-322.73 139.28-322.73 308a288.17 288.17 0 0 0 25.53 119c48.93-51.13 163.58-87.22 297.2-87.22z" style="fill:#0085ce" /><path d="M541 690.3c133.25 0 247.54 35.68 296.4 86.4a283.38 283.38 0 0 0 25.47-117.89C862.86 491.51 718.7 353 541 353S219.18 491.51 219.18 658.81a283.61 283.61 0 0 0 25.42 117.91C293.39 726 407.68 690.3 541 690.3z" style="fill:#0087cf" /><path d="M540.93 690.6c132.93 0 246.91 35.38 295.68 85.75a280.76 280.76 0 0 0 25.38-117c0-165.89-143.81-303.76-321.06-303.76s-321 137.87-321 303.78a280.79 280.79 0 0 0 25.38 117C294 726 408 690.6 540.93 690.6z" style="fill:#0089d1" /><path d="M540.86 691c132.56 0 246.24 35.06 294.91 85a276.51 276.51 0 0 0 25.36-116c0-164.46-143.51-301.58-320.27-301.58S220.75 495.51 220.75 660a277.78 277.78 0 0 0 25.23 116c48.67-49.95 162.26-85 294.88-85z" style="fill:#008bd2" /><path d="M540.86 691.31c132.26 0 245.57 34.74 294.09 84.24a272 272 0 0 0 25.31-114.93c0-163-143-299.48-319.4-299.48S221.53 497.56 221.53 660.6a273.12 273.12 0 0 0 25.25 114.85c48.49-49.4 161.85-84.14 294.08-84.14z" style="fill:#008dd3" /><path d="M540.86 691.66c131.76 0 244.88 34.56 293.27 83.5a268.6 268.6 0 0 0 25.16-114c0-161.61-142.56-297.32-318.43-297.32S222.33 499.57 222.33 661.22a269.15 269.15 0 0 0 25.14 113.94c48.45-49.05 161.46-83.5 293.39-83.5z" style="fill:#008fd5" /><path d="M540.82 692c131.5 0 244.23 34.13 292.51 82.77a263.8 263.8 0 0 0 25.12-113c0-160.17-142.24-295.17-317.52-295.17s-317.82 135-317.82 295.21a266 266 0 0 0 25.12 112.92C296.44 726.11 409.26 692 540.82 692z" style="fill:#0091d6" /><path d="M540.76 692.35c131.17 0 243.67 33.76 291.75 82.08a260.77 260.77 0 0 0 25-112.06c0-158.76-141.87-293-316.76-293S224 503.61 224 662.37a261.74 261.74 0 0 0 25 112c48.06-48.26 160.56-82.02 291.76-82.02z" style="fill:#0093d7" /><path d="M540.76 692.67c130.72 0 243 33.55 291 81.26A257.55 257.55 0 0 0 856.7 663c0-157.3-141.5-290.91-315.94-290.91s-316 133.61-316 291a257 257 0 0 0 25 110.87c47.87-47.74 160.1-81.29 291-81.29z" style="fill:#0095d8" /><path d="M540.67 693c130.46 0 242.39 33.2 290.17 80.57a253.55 253.55 0 0 0 25-110c0-155.93-141.17-288.83-315.14-288.83S225.55 507.61 225.55 663.62a253.93 253.93 0 0 0 24.86 110C298.25 726.22 410.18 693 540.67 693z" style="fill:#0098da" /><path d="M540.65 693.37c130.07 0 241.75 32.87 289.44 79.76a249.91 249.91 0 0 0 24.82-108.9c0-154.51-140.77-286.68-314.26-286.68s-314.28 132.22-314.28 286.7a251.6 251.6 0 0 0 24.77 108.91c47.74-46.9 159.37-79.79 289.51-79.79z" style="fill:#009adb" /><path d="M540.58 693.73c129.8 0 241.08 32.6 288.69 79.06a246.27 246.27 0 0 0 24.82-108c0-153.06-140.4-284.52-313.51-284.52s-313.46 131.48-313.46 284.6a247.69 247.69 0 0 0 24.78 108c47.58-46.54 158.87-79.14 288.68-79.14z" style="fill:#009cdd" /><path d="M540.58 694.08c129.34 0 240.45 32.25 287.82 78.32a242.57 242.57 0 0 0 24.8-107c0-151.58-140-282.35-312.6-282.35S227.94 513.83 227.94 665.41a243.54 243.54 0 0 0 24.78 107c47.33-46.08 158.33-78.33 287.86-78.33z" style="fill:#009fde" /><path d="M540.5 694.42c129.06 0 239.76 32 287.08 77.57a239 239 0 0 0 24.73-105.84c0-150.19-139.68-280.28-311.81-280.28s-311.76 130-311.76 280.24A238.79 238.79 0 0 0 253.37 772c47.24-45.61 158.02-77.58 287.13-77.58z" style="fill:#00a1df" /><path d="M540.5 694.77c128.69 0 239.15 31.62 286.28 76.81a235.36 235.36 0 0 0 24.67-104.91c0-148.8-139.23-278.12-311-278.12S229.56 517.87 229.56 666.67a236.14 236.14 0 0 0 24.52 104.91c47.22-45.19 157.59-76.81 286.42-76.81z" style="fill:#00a3e1" /><path d="M540.43 695.11c128.39 0 238.51 31.32 285.6 76.1a233.5 233.5 0 0 0 24.49-103.92c0-147.37-138.8-276.07-310.09-276.07s-310.07 128.7-310.07 276.07a232.06 232.06 0 0 0 24.52 103.84c46.98-44.7 157.12-76.02 285.55-76.02z" style="fill:#00a5e2" /><path d="M540.43 695.53c128 0 237.82 31.06 284.71 75.38A228.22 228.22 0 0 0 849.66 668c0-146-138.46-273.91-309.23-273.91S231.12 522 231.12 667.9a229.75 229.75 0 0 0 24.34 102.9c46.94-44.32 156.84-75.27 284.97-75.27z" style="fill:#00a7e3" /><path d="M540.37 695.81c127.65 0 237.19 30.67 284 74.65a224.51 224.51 0 0 0 24.43-102c0-144.48-138.07-271.75-308.38-271.75S232 524 232 668.53a225.46 225.46 0 0 0 24.27 101.93c46.84-43.98 156.29-74.65 284.1-74.65z" style="fill:#00aae4" /><path d="M540.3 696.11c127.29 0 236.57 30.43 283.22 73.94a221.05 221.05 0 0 0 24.34-100.94c0-143.08-137.67-269.63-307.56-269.63S232.76 526 232.76 669.11A222 222 0 0 0 257 770.05c46.65-43.51 155.93-73.94 283.3-73.94z" style="fill:#00ace6" /><path d="M540.3 696.52c127 0 235.94 30 282.42 73.11A217.51 217.51 0 0 0 847 669.71C847 528 709.71 402.22 540.28 402.22S233.56 528 233.56 669.71a218 218 0 0 0 24.24 99.92c46.48-43.09 155.47-73.11 282.5-73.11z" style="fill:#00afe7" /><path d="M540.22 696.82c126.66 0 235.28 29.79 281.68 72.43a214.38 214.38 0 0 0 24.24-98.91c0-140.27-137-265.36-305.92-265.36S234.36 530.07 234.36 670.34a215.65 215.65 0 0 0 24.11 98.91c46.37-42.64 155.08-72.43 281.75-72.43z" style="fill:#00b1e9" /><path d="M540.19 697.17c126.23 0 234.62 29.46 280.8 71.69a211.32 211.32 0 0 0 24.17-98c0-138.78-136.64-263.22-305.07-263.22S235.18 532.12 235.18 670.9a211.43 211.43 0 0 0 24 98.07c46.29-42.34 154.72-71.8 281.01-71.8z" style="fill:#10b4ea" /><path d="M540.19 697.51c125.89 0 234 29.18 280.09 70.94a207.43 207.43 0 0 0 24.09-96.92c0-137.38-136.21-261.1-304.18-261.1S236 534.15 236 671.53a207.62 207.62 0 0 0 24 96.92c46.09-41.76 154.18-70.94 280.19-70.94z" style="fill:#18b6ec" /><path d="M540.11 697.86c125.58 0 233.43 28.83 279.35 70.18a204.3 204.3 0 0 0 24-95.89c0-136.08-135.78-259-303.37-259s-303.33 123-303.33 259A204.86 204.86 0 0 0 260.71 768c46.01-41.31 153.82-70.14 279.4-70.14z" style="fill:#24b9ed" /><path d="M540 698.2c125.28 0 232.78 28.54 278.64 69.49a200.32 200.32 0 0 0 24-94.91c0-134.59-135.44-256.87-302.58-256.87S237.6 538.19 237.6 672.78a201.18 201.18 0 0 0 23.76 94.91C307.3 726.74 414.72 698.2 540 698.2z" style="fill:#2dbbee" /><path d="M540 698.53c124.87 0 232.14 28.21 277.84 68.73a197.26 197.26 0 0 0 23.76-93.87c0-133.15-135.06-254.73-301.69-254.73S238.38 540.24 238.38 673.39a197.64 197.64 0 0 0 23.76 93.87c45.79-40.52 153.01-68.73 277.86-68.73z" style="fill:#36bdef" /><path d="M540 699.31c124.74 0 231.81 28.08 277.43 68.29a194.38 194.38 0 0 0 23.76-93.31C841.26 542 706.45 421.21 540 421.21S238.79 542 238.79 674.29a196.06 196.06 0 0 0 23.76 93.31c45.7-40.21 152.71-68.29 277.45-68.29z" style="fill:#43bfef" /><path d="M540 700.1c124.52 0 231.51 27.9 277.08 67.9a193.59 193.59 0 0 0 23.76-92.68C840.84 543.9 706.32 423.7 540 423.7S239.18 543.87 239.18 675.29A193.59 193.59 0 0 0 262.94 768c45.62-40.07 152.49-67.9 277.06-67.9z" style="fill:#50c1f0" /><path d="M540 700.88c124.35 0 231.12 27.71 276.7 67.42a190.76 190.76 0 0 0 23.76-92.09c0-130.55-134.4-250-300.42-250s-300.45 119.47-300.45 250a191.94 191.94 0 0 0 23.76 92.09c45.53-39.71 152.21-67.42 276.65-67.42z" style="fill:#5ac3f0" /><path d="M540 701.72c124.18 0 230.82 27.46 276.31 67a189 189 0 0 0 23.76-91.47c0-129.6-134.31-248.4-300.05-248.4s-300 118.8-300 248.4a189.73 189.73 0 0 0 23.76 91.47c45.4-39.54 151.98-67 276.22-67z" style="fill:#65c6f1" /><path d="M540 702.48c124 0 230.58 27.32 276 66.49a187.2 187.2 0 0 0 23.76-90.85c0-128.81-134.11-246.85-299.61-246.85s-299.59 118-299.59 246.85A187.21 187.21 0 0 0 264 769c45.48-39.2 152-66.52 276-66.52z" style="fill:#6dc8f2" /><path d="M540 703.21c123.83 0 230.17 27.22 275.55 66.08a184.73 184.73 0 0 0 23.76-90.22c0-127.92-133.92-245.27-299.25-245.27S240.8 551.15 240.8 679.07a185.56 185.56 0 0 0 23.58 90.22c45.43-38.86 151.74-66.08 275.62-66.08z" style="fill:#74caf2" /><path d="M540 704c123.66 0 229.87 27 275.14 65.64a183 183 0 0 0 23.65-89.57C838.81 553 705.07 436.33 540 436.33S241.14 553 241.14 680a183.6 183.6 0 0 0 23.57 89.64C310.11 731 416.32 704 540 704z" style="fill:#7dccf3" /><path d="M540 704.83c123.49 0 229.56 26.77 274.75 65.17a180.73 180.73 0 0 0 23.76-89c0-126.25-133.62-242.22-298.45-242.22S241.6 554.76 241.6 681a180.93 180.93 0 0 0 23.56 89c45.28-38.4 151.27-65.17 274.84-65.17z" style="fill:#83cff3" /><path d="M540 705.61c123.36 0 229.26 26.64 274.45 64.69a178.92 178.92 0 0 0 23.63-88.36c0-125.28-133.38-240.63-298.08-240.63S241.92 556.59 241.92 681.92a179.74 179.74 0 0 0 23.52 88.43c45.3-38.1 151.16-64.67 274.56-64.74z" style="fill:#8ad1f4" /><path d="M540 706.33c123.12 0 229 26.43 274 64.28a177.48 177.48 0 0 0 23.52-87.76c0-124.53-133.18-239.07-297.56-239.07s-297.63 114.48-297.63 239a178.29 178.29 0 0 0 23.46 87.83C311 732.83 416.73 706.33 540 706.33z" style="fill:#91d3f4" /><path d="M540 707.19c123 0 228.61 26.22 273.65 63.78a175.5 175.5 0 0 0 23.54-87.13c0-123.6-133.05-237.49-297.19-237.49S242.78 560.24 242.78 683.82a175.76 175.76 0 0 0 23.4 87.18c45.1-37.59 150.7-63.81 273.82-63.81z" style="fill:#98d5f5" /><path d="M540 708c122.8 0 228.25 26.09 273.26 63.39a172.77 172.77 0 0 0 23.5-86.61C836.76 562 703.88 448.85 540 448.85S243.24 562 243.24 684.73a173.54 173.54 0 0 0 23.35 86.57C311.6 734 417.12 708 540 708z" style="fill:#9fd8f6" /><path d="M540 708.74c122.67 0 227.94 25.92 272.89 62.93a171.29 171.29 0 0 0 23.48-85.93c0-122-132.73-234.29-296.37-234.29S243.6 563.92 243.6 685.72a171.51 171.51 0 0 0 23.35 86c44.98-37.06 150.34-62.93 273.05-62.98z" style="fill:#a5daf6" /><path d="M540 709.54c122.47 0 227.69 25.71 272.51 62.51a169.37 169.37 0 0 0 23.41-85.36c0-121-132.49-232.78-295.92-232.78S244.08 565.69 244.08 686.65a169.84 169.84 0 0 0 23.35 85.4c44.86-36.8 150.08-62.46 272.57-62.51z" style="fill:#aadcf7" /><path d="M540 710.3c122.3 0 227.3 25.55 272.16 62.06a167.55 167.55 0 0 0 23.35-84.7c0-120.2-132.34-231.12-295.51-231.12S244.38 567.63 244.38 687.66a168 168 0 0 0 23.46 84.74c44.69-36.55 149.8-62.04 272.16-62.1z" style="fill:#b1dff7" /><path d="M540 711.12c122.17 0 227 25.34 271.77 61.58a165.09 165.09 0 0 0 23.35-84.11C835.12 569.25 703 458.94 540 458.94S244.79 569.36 244.79 688.53a166.45 166.45 0 0 0 23.29 84.24c44.84-36.2 149.73-61.63 271.92-61.65z" style="fill:#b6e1f8" /><path d="M540 711.9c121.93 0 226.8 25.14 271.4 61.15a163.57 163.57 0 0 0 23.33-83.49c0-118.47-132-228.09-294.73-228.09s-294.75 109.68-294.75 228a164.35 164.35 0 0 0 23.19 83.59C313.2 737 418 712 540 711.9z" style="fill:#bbe3f8" /><path d="M540 712.68c121.78 0 226.37 25 271 60.71a162 162 0 0 0 23.26-82.9C834.28 573 702.52 464 540 464S245.59 573 245.59 690.47a162.37 162.37 0 0 0 23.24 83c44.72-35.8 149.37-60.66 271.17-60.79z" style="fill:#c1e5f9" /><path d="M540 713.5c121.61 0 226.07 24.77 270.63 60.22a159.87 159.87 0 0 0 23.24-82.28c0-116.64-131.61-224.94-293.76-224.94s-294 108.3-294 224.94a160.84 160.84 0 0 0 23.09 82.34c44.67-35.51 149.11-60.28 270.8-60.28z" style="fill:#c6e7f9" /><path d="M540 714.25c121.39 0 225.74 24.65 270.28 59.81a158.15 158.15 0 0 0 23.22-81.67C833.5 576.55 702.06 469 540 469S246.43 576.73 246.43 692.35a159.23 159.23 0 0 0 23.09 81.76c44.59-35.21 148.96-59.84 270.48-59.86z" style="fill:#cbe9fa" /><path d="M540 715.07c121.31 0 225.44 24.41 270 59.34a156.19 156.19 0 0 0 23.07-81c0-115-131.22-221.84-293.05-221.84s-293.18 106.86-293.18 221.8a157.24 157.24 0 0 0 23.16 81.1c44.41-34.99 148.69-59.38 270-59.4z" style="fill:#d0ebfa" /><path d="M540 715.81c121.13 0 225.12 24.25 269.52 58.94a154.2 154.2 0 0 0 23.1-80.43C832.62 580.16 701.57 474 540 474S247.19 580.18 247.19 694.32a155.45 155.45 0 0 0 23.07 80.56c44.47-34.82 148.63-59.01 269.74-59.07z" style="fill:#d5edfa" /><path d="M540 716.63c121 0 224.81 24.06 269.16 58.47a152.64 152.64 0 0 0 23.09-79.92c0-113.25-130.88-218.68-292.25-218.68S247.6 582.1 247.6 695.18a153.61 153.61 0 0 0 23 79.92C315 740.69 419 716.63 540 716.63z" style="fill:#dbeffb" /><path d="M540 717.41c120.7 0 224.51 23.91 268.75 58.06a151.21 151.21 0 0 0 23.11-79.25c0-112.32-130.72-217.15-291.86-217.15S248 583.9 248 696.15a150.41 150.41 0 0 0 23.07 79.3c44.29-34.13 148.1-58.04 268.93-58.04z" style="fill:#dff1fb" /><path d="M540 718.18c120.53 0 224.19 23.76 268.34 57.63a148.86 148.86 0 0 0 23.09-78.62c0-111.54-130.49-215.57-291.43-215.57S248.4 585.71 248.4 697.1a149.48 149.48 0 0 0 22.94 78.71c44.39-33.89 147.96-57.6 268.66-57.63z" style="fill:#e4f3fc" /><path d="M540 719c120.42 0 223.8 23.53 268 57.16a147.73 147.73 0 0 0 23-78c0-110.66-130.34-214-291-214S248.83 587.53 248.83 698a147.82 147.82 0 0 0 22.9 78.08C316 742.51 419.52 719 540 719z" style="fill:#e9f5fc" /><path d="M540 719.74c120.23 0 223.52 23.39 267.58 56.7a145 145 0 0 0 23-77.37c0-109.82-130.14-212.42-290.61-212.42S249.22 589.34 249.22 699a145.31 145.31 0 0 0 22.94 77.48c44.13-33.43 147.53-56.7 267.84-56.74z" style="fill:#edf7fd" /><path d="M540 720.54c120 0 223.17 23.2 267.24 56.27a143.28 143.28 0 0 0 23-76.79c0-108.93-130-210.86-290.2-210.86S249.7 591.15 249.7 700a143.7 143.7 0 0 0 22.83 76.88c44.13-33.14 147.33-56.3 267.47-56.34z" style="fill:#f1f9fd" /><path d="M540 721.45c119.88 0 222.89 23 266.82 55.79a141.18 141.18 0 0 0 23-76.12C829.83 593 700 491.79 540 491.79S250 593.12 250 701a142.29 142.29 0 0 0 22.85 76.29c44.07-32.99 147.23-55.84 267.15-55.84z" style="fill:#f7fbfd" /><path d="M540 722.11c119.73 0 222.48 22.84 266.48 55.37a139.93 139.93 0 0 0 23-75.47C829.44 594.8 699.84 494.3 540 494.3S250.56 594.89 250.56 701.94a140.44 140.44 0 0 0 22.79 75.6C317.22 745 420.16 722.18 540 722.11z" style="fill:#fbfdff" /><path d="M540 722.89c119.53 0 222.29 22.64 266.09 54.91A138.1 138.1 0 0 0 829 702.89c0-106.36-129.45-206.17-289-206.17S250.93 596.6 250.93 702.83a139.08 139.08 0 0 0 22.7 75.06c43.89-32.36 146.73-54.95 266.37-55z" style="fill:#fff" /></g><path d="M540 616.79c-104.74 0-201.83 17.76-282 47.8 69.4 155.84 252 225.9 407.82 156.5a308.9 308.9 0 0 0 156.5-156.5C742 634.55 644.7 616.79 540 616.79z" style="fill:#007bc6" />

</symbol><symbol id="bank-cu" viewBox="0 0 1080 1080"><path d="M515.53.57C217.62 14-13 266.4.57 564.37s265.91 528.47 563.86 515.07 528.53-266 515-563.89S813.54-13 515.53.57z" style="fill:#0c59ff" /><path d="M802.27 619.38c-28.65 71.28-76.66 91.32-76.66 91.32 141.24-143.12 55-308 55-308-20.84-37 5.7-53.07 5.7-53.07-60.7 15.11-41.74 65.37-41.74 65.37 30.48 72.6 24.35 131.59 14 168.07l-20-11.21.32-.46s47.35-186.62-145.8-252.07l-.17-35.12h-40.76v231.25l189.56 108q-5.19 10.54-10.93 19.87L540.41 533l-191.2 110.33q-5.73-9.35-10.93-19.87l189.56-108V284.19h-40.76l-.15 35.12c-193.17 65.45-145.82 252.07-145.82 252.07l.32.46-20 11.21c-10.35-36.49-16.48-95.48 14-168.07 0 0 19-50.22-41.71-65.39 0 0 26.54 16.12 5.7 53.07 0 0-86.27 164.92 55 308 0 0-48-20.13-76.63-91.32 0 0-16.27-34.73-61.76-27.15 0 0 17.28 7.77 27.26 39.24 0 0 41 130.43 199.28 150.32v72h77.73V747.68s-82.45-.67-145.41-69.94l19.55-11.38c3.63 3.43 63.48 58.82 145.13 60.26h.95c81.65-1.44 141.5-56.83 145.13-60.26l19.44 11.38c-63 69.27-145.41 69.94-145.41 69.94v106.15h77.76v-72c158.3-19.89 199.28-150.32 199.28-150.32C846.8 600 864 592.23 864 592.23c-45.49-7.58-61.73 27.15-61.73 27.15zM701 550.52l-.15.19-106.94-59.9-.58-127.95h.58S722.78 397.91 701 550.52zM486.13 362.86h.58l-.58 128-106.94 59.9-.15-.19c-21.82-152.66 107.09-187.71 107.09-187.71zm54.19 218.57l106.62 62.33v.2l-1-.54c-38.12 30.11-74.52 40.07-106 40.07s-67.87-10-106-40.09l-.95.54v-.2l107.26-62.33z" style="fill:#fff" />

</symbol><symbol id="bank-toss" viewBox="0 0 1080 1080"><path d="M515.53.57C217.62 14-13 266.4.57 564.37s265.91 528.47 563.86 515.07 528.53-266 515-563.89S813.54-13 515.53.57z" style="fill:#0064ff" /><path d="M578 303.36h-3.11C338.3 303.36 270 584.16 270 716.52l104.89-62.19c39.53 72.9 115.67 122.3 203 122.3C706.15 776.66 810 670.71 810 540S706.15 303.36 578 303.36z" style="fill:#fff;fill-rule:evenodd" />

</symbol><symbol id="bank-citi" viewBox="0 0 1080 1080"><path d="M515.53.57C217.62 14-13 266.4.57 564.37s265.91 528.47 563.86 515.07 528.53-266 515-563.89S813.54-13 515.53.57z" style="fill:#1d2087" /><path d="M348.21 649.32A86.4 86.4 0 1 1 414.14 507l32.4-32.4a132.19 132.19 0 1 0-10.24 186.69q4.8-4.31 9.18-9.07l-32.4-32.4a86.16 86.16 0 0 1-64.87 29.5zm116.43-218.65h55.64v263.78h-55.64zm291.23 0h55.64v263.78h-55.64zm-94.52 208.7V484.49h45.23v-47.84h-45.23v-73.89l-55.66 27.43v46.46H561v47.84h44.72v154.88s1 55.18 55.14 55.18 66.29-26.61 66.29-55.72h-43.71s-10.19 12.03-22.09.54z" style="fill:#fff" /><path d="M636.83 326.16c57 0 110 26.75 153.92 72.47H864c-59.36-70.8-139.23-114.26-227.17-114.26S469 327.83 409.64 398.63h73.25c43.89-45.7 96.88-72.47 153.94-72.47z" style="fill:#e50012" />

</symbol></svg>